<svg xmlns="http://www.w3.org/2000/svg" xmlns:xlink="http://www.w3.org/1999/xlink" viewBox="0 0 487.06 545">
<defs>
<style>.cls-1{fill:none;}.cls-2,.cls-3{fill:#33c353;}.cls-3{font-size:72px;font-family:ForteMT, Forte;}.cls-4{clip-path:url(#clip-path);}</style>
<clipPath id="clip-path"><circle class="cls-1" cx="-168.5" cy="524.08" r="158.5"/></clipPath></defs><title>logo_solid_main_text</title>
<g id="Layer_1" data-name="Layer 1"><rect class="cls-2" x="374.92" y="189.41" width="24.35" height="125" rx="9.43" transform="translate(45.41 -58.82) rotate(9.23)"/>
<rect class="cls-2" x="402.38" y="217.75" width="24.35" height="77.26" rx="9.43" transform="translate(46.49 -63.17) rotate(9.23)"/><rect class="cls-2" x="429.85" y="236.96" width="24.35" height="47.75" rx="9.43" transform="translate(47.56 -67.52) rotate(9.23)"/>
<rect class="cls-2" x="351.35" y="224.21" width="24.35" height="47.75" transform="translate(60.35 567.11) rotate(-80.77)"/><rect class="cls-2" x="100.03" y="189.49" width="24.35" height="125" rx="9.43" transform="matrix(-0.99, 0.16, -0.16, -0.99, 264.13, 482.21)"/>
<rect class="cls-2" x="72.58" y="217.92" width="24.35" height="77.26" rx="9.43" transform="translate(210.35 495.76) rotate(170.58)"/><rect class="cls-2" x="45.12" y="237.22" width="24.35" height="47.75" rx="9.43" transform="matrix(-0.99, 0.16, -0.16, -0.99, 156.56, 509.3)"/>
<rect class="cls-2" x="123.58" y="224.21" width="24.35" height="47.75" transform="translate(-86.76 422.61) rotate(-99.42)"/>
<path class="cls-2" d="M253.72,336.88s25,24,57,5,96-143,20-185c0,0-44-21-77,4,0,0-3-48,28-60,0,0,4-15-14-9,0,0-19,12-21,39s-1,30-1,30-66-32-96,10-10,101,7,132S211.72,369.88,253.72,336.88Z"/>
<path class="cls-2" d="M246.86,129.31s-11.34-44-62.79-40.45c0,0,.85,56.94,61.83,54.64C245.9,143.5,252,135.17,246.86,129.31Z"/>
<text class="cls-3" transform="translate(45.38 417.34)">Life Optimizer</text>
</g></svg>